<?xml version="1.0"?>
<svg xmlns="http://www.w3.org/2000/svg" height="512px" viewBox="0 0 512 512.00013" width="512px"><path d="m346 286c-25.234375 0-45 26.355469-45 60s19.765625 60 45 60 45-26.355469 45-60-19.765625-60-45-60zm0 90c-6.117188 0-15-11.6875-15-30s8.882812-30 15-30 15 11.6875 15 30-8.882812 30-15 30zm0 0" fill="#FFFFFF"/><path d="m166 286c-25.234375 0-45 26.355469-45 60s19.765625 60 45 60 45-26.355469 45-60-19.765625-60-45-60zm0 90c-6.117188 0-15-11.6875-15-30s8.882812-30 15-30 15 11.6875 15 30-8.882812 30-15 30zm0 0" fill="#FFFFFF"/><path d="m459.929688 301 26.640624 25.777344c5.953126 5.761718 15.449219 5.605468 21.207032-.347656 5.761718-5.953126 5.605468-15.449219-.347656-21.207032l-31-30c-2.796876-2.707031-6.539063-4.222656-10.429688-4.222656h-16.972656c-4.414063-33.4375-16.199219-64.964844-34.484375-92.332031l32.0625-32.0625c2.8125-2.8125 4.394531-6.628907 4.394531-10.605469v-23.785156l25.605469-25.609375c5.859375-5.855469 5.859375-15.351563 0-21.210938-5.855469-5.859375-15.355469-5.859375-21.214844 0l-30 30c-2.808594 2.8125-4.390625 6.628907-4.390625 10.605469v23.785156l-25.019531 25.019532c-.558594-.621094-1.109375-1.25-1.679688-1.863282-22.289062-24.148437-49.058593-41.722656-78.300781-51.859375v-10.082031c0-16.003906-6.183594-31.191406-17.414062-42.765625-2.132813-2.199219-4.398438-4.210937-6.769532-6.03125 5.757813-7.5625 9.183594-16.988281 9.183594-27.203125 0-8.285156-6.714844-15-15-15s-15 6.714844-15 15c0 8.269531-6.730469 15-15 15s-15-6.730469-15-15c0-8.285156-6.714844-15-15-15s-15 6.714844-15 15c0 10.214844 3.425781 19.640625 9.183594 27.203125-2.375 1.820313-4.636719 3.832031-6.769532 6.03125-11.230468 11.574219-17.414062 26.761719-17.414062 42.765625v10.082031c-29.964844 10.386719-57.289062 28.542969-79.984375 53.722657l-25.015625-25.019532v-23.785156c0-3.976562-1.582031-7.792969-4.394531-10.605469l-30-30c-5.855469-5.859375-15.355469-5.859375-21.214844 0-5.855469 5.855469-5.855469 15.351563 0 21.210938l25.609375 25.609375v23.785156c0 3.976562 1.582031 7.792969 4.394531 10.605469l32.0625 32.0625c-18.285156 27.367187-30.070312 58.894531-34.484375 92.332031h-17.972656c-3.976562 0-7.792969 1.578125-10.605469 4.394531l-30 30c-5.859375 5.855469-5.859375 15.351563 0 21.210938 5.855469 5.859375 15.355469 5.859375 21.210938 0l25.605469-25.605469h9.789062c0 37.703125 9.195312 73.121094 25.273438 103.789062l-21.058594 21.785157c-2.703125 2.796875-4.214844 6.535156-4.214844 10.425781v23.785156l-25.605469 25.609375c-5.859375 5.855469-5.859375 15.351563 0 21.210938 5.855469 5.859375 15.355469 5.859375 21.210938 0l30-30c2.8125-2.8125 4.394531-6.628907 4.394531-10.605469v-23.9375l11.574219-11.972656c35.726562 49.230468 91.222656 80.910156 153.425781 80.910156s117.695312-31.679688 153.425781-80.910156l11.574219 11.972656v23.9375c0 3.976562 1.582031 7.792969 4.394531 10.605469l30 30c5.855469 5.859375 15.355469 5.859375 21.210938 0 5.859375-5.855469 5.859375-15.351563 0-21.210938l-25.605469-25.609375v-23.785156c0-3.890625-1.511719-7.628906-4.214844-10.425781l-21.0625-21.789063c16.082032-30.664062 25.277344-66.082031 25.277344-103.785156zm-94.933594-135.011719c13.144531 12.648438 24.433594 27.53125 33.363281 44.109375-2.378906.597656-4.84375.902344-7.359375.902344-16.542969 0-30-13.457031-30-30 0-5.386719 1.402344-10.523438 3.996094-15.011719zm-138.996094-74.988281c0-16.804688 13.738281-31 30-31s30 14.195312 30 31v2.460938c-9.835938-1.625-19.859375-2.460938-30-2.460938-10.144531 0-20.164062.835938-30 2.460938zm30 165c-18.3125 0-30-8.882812-30-15s11.6875-15 30-15 30 8.882812 30 15-11.6875 15-30 15zm-105-75c0 16.542969-13.457031 30-30 30-2.515625 0-4.984375-.308594-7.359375-.902344 8.925781-16.578125 20.214844-31.464844 33.359375-44.109375 2.597656 4.488281 4 9.625 4 15.011719zm-60 120c0-22.238281 3.726562-43.542969 10.515625-63.222656 6.199219 2.125 12.75 3.222656 19.484375 3.222656 33.082031 0 60-26.914062 60-60 0-12.171875-3.792969-23.984375-10.542969-33.871094 20.925781-13.898437 44.898438-22.84375 70.542969-25.375v75.613282c-26.160156 4.875-45 22.296874-45 43.632812s18.839844 38.761719 45 43.636719v196.609375c-83.714844-8.316406-150-85.742188-150-180.246094zm180 180.242188v-196.609376c26.15625-4.875 45-22.296874 45-43.632812s-18.84375-38.761719-45-43.636719v-75.613281c25.640625 2.53125 49.613281 11.480469 70.539062 25.375-6.746093 9.890625-10.539062 21.703125-10.539062 33.875 0 33.085938 26.914062 60 60 60 6.734375 0 13.285156-1.097656 19.484375-3.222656 6.789063 19.679687 10.515625 40.984375 10.515625 63.222656 0 95.128906-67.03125 172.003906-150 180.242188zm0 0" fill="#FFFFFF"/></svg>
